<svg xmlns="http://www.w3.org/2000/svg" viewBox="0 0 64 64">
  <defs>
    <radialGradient id="bg" cx="50%" cy="50%" r="50%">
      <stop offset="0%" stop-color="#2C1810"/>
      <stop offset="100%" stop-color="#1a0f0a"/>
    </radialGradient>
    <radialGradient id="glow" cx="50%" cy="50%" r="50%">
      <stop offset="0%" stop-color="#DAA520" stop-opacity="0.3"/>
      <stop offset="100%" stop-color="#DAA520" stop-opacity="0"/>
    </radialGradient>
  </defs>
  <circle cx="32" cy="32" r="32" fill="url(#bg)"/>
  <circle cx="32" cy="32" r="30" fill="none" stroke="#DAA520" stroke-width="1.5" opacity="0.4"/>
  <circle cx="32" cy="32" r="28" fill="url(#glow)"/>
  <!-- Chakra spokes -->
  <g stroke="#DAA520" stroke-width="1.8" stroke-linecap="round" opacity="0.9">
    <line x1="32" y1="8" x2="32" y2="56"/>
    <line x1="8" y1="32" x2="56" y2="32"/>
    <line x1="14.3" y1="14.3" x2="49.7" y2="49.7"/>
    <line x1="49.7" y1="14.3" x2="14.3" y2="49.7"/>
    <line x1="32" y1="8" x2="32" y2="56"/>
    <line x1="20" y1="10.4" x2="44" y2="53.6"/>
    <line x1="44" y1="10.4" x2="20" y2="53.6"/>
    <line x1="10.4" y1="20" x2="53.6" y2="44"/>
    <line x1="53.6" y1="20" x2="10.4" y2="44"/>
  </g>
  <!-- Outer ring -->
  <circle cx="32" cy="32" r="23" fill="none" stroke="#FF9933" stroke-width="2" opacity="0.85"/>
  <!-- Inner ring -->
  <circle cx="32" cy="32" r="15" fill="none" stroke="#DAA520" stroke-width="1.5" opacity="0.7"/>
  <!-- Center hub -->
  <circle cx="32" cy="32" r="7" fill="#DAA520"/>
  <circle cx="32" cy="32" r="4" fill="#FF9933"/>
  <circle cx="32" cy="32" r="2" fill="#FFF8E7"/>
</svg>
